<?xml version="1.0" encoding="utf-8"?>
<?xml-stylesheet type="text/xsl" href="rss1.xsl"?>
<rss version="2.0" xmlns:atom="http://www.w3.org/2005/Atom" xmlns:content="http://purl.org/rss/1.0/modules/content/" xmlns:dc="http://purl.org/dc/elements/1.1/" xmlns:media="http://search.yahoo.com/mrss/">
<channel>
 <title>Getty</title>
 <link>http://www.gettyimg.com/</link>
 <atom:link href="http://www.gettyimg.com/" rel="self" type="application/rss+xml" />

 
                <item>
                <title><![CDATA[【MASTER &amp; MASTER RIP】MASTER - Residente - 313 [Master 1080]]]></title>
                <link><![CDATA[https://sharemania.us/threads/residente-313-master-1080.239630/]]></link>
                <description><![CDATA[<article>
<blockquote class="messageText SelectQuoteContainer ugc baseHtml">
<div style="text-align: center"><img src="https://i.ibb.co/dGRLMGF/20240309224117.gif" class="bbCodeImage LbImage" alt="[​IMG]" data-url="https://i.ibb.co/dGRLMGF/20240309224117.gif" style=""><br>
​</div>
<div class="ToggleTriggerAnchor bbCodeSpoilerContainer">
<button type="button" class="button bbCodeSpoilerButton ToggleTrigger Tooltip JsOnly" data-target="> .SpoilerTarget"><span>Spoiler: <span class="SpoilerTitle">MASTER</span></span></button>
<div class="SpoilerTarget bbCodeSpoilerText">
<div class="bbCodeBlock bbCodeCode">
<div class="type">Code:</div>
<pre>General
Complete name                            : Residente - 313.mp4
Format                                   : MPEG-4
Format profile                           : Base Media
Codec ID                                 : isom (isom/iso2/avc1/mp41)
File size                                : 839 MiB
Duration                                 : 6 min 9 s
Overall bit rate mode                    : Variable
Overall bit rate                         : 19.1 Mb/s
Frame rate                               : 24.000 FPS
Encoded date                             : 2024-02-15 20:42:30 UTC
Tagged date                              : 2024-02-15 20:42:30 UTC
Writing application                      : Blackmagic Design DaVinci Resolve

Video
ID                                       : 1
Format                                   : AVC
Format/Info                              : Advanced Video Codec
Format profile                           : High@L5
Format settings                          : CABAC / 2 Ref Frames
Format settings, CABAC                   : Yes
Format settings, Reference frames        : 2 frames
Format settings, GOP                     : M=2, N=120
Codec ID                                 : avc1
Codec ID/Info                            : Advanced Video Coding
Duration                                 : 6 min 9 s
Bit rate mode                            : Variable
Bit rate                                 : 18.7 Mb/s
Maximum bit rate                         : 768 kb/s
Width                                    : 2 048 pixels
Height                                   : 1 152 pixels
Display aspect ratio                     : 16:9
Frame rate mode                          : Constant
Frame rate                               : 24.000 FPS
Color space                              : YUV
Chroma subsampling                       : 4:2:0
Bit depth                                : 8 bits
Scan type                                : Progressive
Bits/(Pixel*Frame)                       : 0.331
Stream size                              : 825 MiB (98%)
Encoded date                             : 2024-02-15 20:42:30 UTC
Tagged date                              : 2024-02-15 20:42:30 UTC
Color range                              : Limited
Color primaries                          : BT.709
Matrix coefficients                      : BT.709
Gamma                                    : 2.400
Codec configuration box                  : avcC

Audio
ID                                       : 2
Format                                   : AAC LC
Format/Info                              : Advanced Audio Codec Low Complexity
Codec ID                                 : 2 / 40 / mp4a-40-2
Duration                                 : 6 min 9 s
Bit rate mode                            : Constant
Bit rate                                 : 320 kb/s
Channel(s)                               : 2 channels
Channel layout                           : L R
Sampling rate                            : 48.0 kHz
Frame rate                               : 46.875 FPS (1024 SPF)
Compression mode                         : Lossy
Stream size                              : 14.1 MiB (2%)
Default                                  : Yes
Alternate group                          : 1
Encoded date                             : 2024-02-15 20:42:30 UTC
Tagged date                              : 2024-02-15 20:42:30 UTC

Other
ID                                       : 3
Type                                     : Time code
Format                                   : QuickTime TC
Duration                                 : 6 min 9 s
Frame rate                               : 24.000 FPS
Time code of first frame                 : 01:00:00:00
Time code of last frame                  : 01:06:09:02
Time code, stripped                      : Yes
Language                                 : English
Default                                  : No
Encoded date                             : 2024-02-15 20:42:30 UTC
Tagged date                              : 2024-02-15 20:42:30 UTC

</pre>
</div><div style="text-align: center">​</div></div>
</div><div style="text-align: center"><br>
<div class="bbCodeBlock bbCodeVfcHH HiddenContent">
<div class="attribution type">Hidden Content:</div>
<blockquote>You must reply before you can see the hidden data contained here.</blockquote>
</div></div>
<div class="messageTextEndMarker">&nbsp;</div>
</blockquote>
</article>]]></description>
                <author><![CDATA[fstambuk]]></author>
                </item>

                
                <item>
                <title><![CDATA[【MASTER &amp; MASTER RIP】MASTER - Wonder Girls - I Feel You [Master 1080]]]></title>
                <link><![CDATA[https://sharemania.us/threads/wonder-girls-i-feel-you-master-1080.239628/]]></link>
                <description><![CDATA[<article>
<blockquote class="messageText SelectQuoteContainer ugc baseHtml">
<div style="text-align: center"><img src="https://i.ibb.co/23fcDLv/20240309223247.gif" class="bbCodeImage LbImage" alt="[​IMG]" data-url="https://i.ibb.co/23fcDLv/20240309223247.gif" style=""><br>
​</div>
<div class="ToggleTriggerAnchor bbCodeSpoilerContainer">
<button type="button" class="button bbCodeSpoilerButton ToggleTrigger Tooltip JsOnly" data-target="> .SpoilerTarget"><span>Spoiler: <span class="SpoilerTitle">MASTER</span></span></button>
<div class="SpoilerTarget bbCodeSpoilerText">
<div class="bbCodeBlock bbCodeCode">
<div class="type">Code:</div>
<pre>General
Complete name                            : Wonder Girls - I Feel You.mov
Format                                   : MPEG-4
Format profile                           : QuickTime
Codec ID                                 : qt   2005.03 (qt  )
File size                                : 912 MiB
Duration                                 : 3 min 33 s
Overall bit rate mode                    : Variable
Overall bit rate                         : 35.9 Mb/s
Frame rate                               : 23.976 FPS
Encoded date                             : 2015-07-31 08:57:21 UTC
Tagged date                              : 2015-07-31 09:02:50 UTC
Writing library                          : Apple QuickTime
TIM                                      : 00:00:00:03
TSC                                      : 2997
TSZ                                      : 125

Video
ID                                       : 1
Format                                   : AVC
Format/Info                              : Advanced Video Codec
Format profile                           : Main@L4.1
Format settings                          : 2 Ref Frames
Format settings, CABAC                   : No
Format settings, Reference frames        : 2 frames
Format settings, GOP                     : N=1
Format settings, Slice count             : 8 slices per frame
Codec ID                                 : avc1
Codec ID/Info                            : Advanced Video Coding
Duration                                 : 3 min 33 s
Bit rate mode                            : Variable
Bit rate                                 : 34.3 Mb/s
Width                                    : 1 920 pixels
Height                                   : 1 080 pixels
Display aspect ratio                     : 16:9
Frame rate mode                          : Constant
Frame rate                               : 23.976 (24000/1001) FPS
Color space                              : YUV
Chroma subsampling                       : 4:2:0
Bit depth                                : 8 bits
Scan type                                : Progressive
Bits/(Pixel*Frame)                       : 0.691
Stream size                              : 873 MiB (96%)
Language                                 : English
Encoded date                             : 2015-07-31 08:57:21 UTC
Tagged date                              : 2015-07-31 09:02:50 UTC
Color range                              : Limited
Color primaries                          : BT.709
Transfer characteristics                 : BT.709
Matrix coefficients                      : BT.709
Codec configuration box                  : avcC

Audio
ID                                       : 2
Format                                   : PCM
Format settings                          : Little / Signed
Codec ID                                 : sowt
Duration                                 : 3 min 33 s
Source duration                          : 3 min 33 s
Bit rate mode                            : Constant
Bit rate                                 : 1 536 kb/s
Channel(s)                               : 2 channels
Channel layout                           : L R
Sampling rate                            : 48.0 kHz
Bit depth                                : 16 bits
Stream size                              : 39.0 MiB (4%)
Source stream size                       : 39.1 MiB (4%)
Language                                 : English
Encoded date                             : 2015-07-31 08:57:21 UTC
Tagged date                              : 2015-07-31 09:02:50 UTC

Other
ID                                       : 3
Type                                     : Time code
Format                                   : QuickTime TC
Duration                                 : 3 min 33 s
Frame rate                               : 23.976 (23976/1000) FPS
Time code of first frame                 : 00:00:00:03
Time code of last frame                  : 00:03:33:02
Time code, stripped                      : Yes
Language                                 : English
Encoded date                             : 2015-07-31 09:02:50 UTC
Tagged date                              : 2015-07-31 09:02:50 UTC

</pre>
</div><div style="text-align: center">​</div></div>
</div><div style="text-align: center"><br>
<div class="bbCodeBlock bbCodeVfcHH HiddenContent">
<div class="attribution type">Hidden Content:</div>
<blockquote>You must reply before you can see the hidden data contained here.</blockquote>
</div></div>
<div class="messageTextEndMarker">&nbsp;</div>
</blockquote>
</article>]]></description>
                <author><![CDATA[fstambuk]]></author>
                </item>

                
                <item>
                <title><![CDATA[【Live Audios (lossy)】M4A - Madonna - The Girlie Show Down Under (Laserdisc Remastered)]]></title>
                <link><![CDATA[https://sharemania.us/threads/madonna-the-girlie-show-down-under-laserdisc-remastered.239629/]]></link>
                <description><![CDATA[<article>
<blockquote class="messageText SelectQuoteContainer ugc baseHtml">
<img src="https://i.ibb.co/mt8QZmq/WPLP-9116-cover-topaz-denoise-enhance-1050w-exposure-sharpen-color.jpg" class="bbCodeImage LbImage" alt="[​IMG]" data-url="https://i.ibb.co/mt8QZmq/WPLP-9116-cover-topaz-denoise-enhance-1050w-exposure-sharpen-color.jpg" style=""><br>
<img src="https://i.ibb.co/NK9jths/WPLP-9116-back-cover.jpg" class="bbCodeImage LbImage" alt="[​IMG]" data-url="https://i.ibb.co/NK9jths/WPLP-9116-back-cover.jpg" style=""> <br>
<br>
M4A iTunes - 512kbps - 421MB<br>
<div class="bbCodeBlock bbCodeVfcHH HiddenContent">
<div class="attribution type">Hidden Content:</div>
<blockquote>You must reply before you can see the hidden data contained here.</blockquote>
</div>
<div class="messageTextEndMarker">&nbsp;</div>
</blockquote>
</article>]]></description>
                <author><![CDATA[Luciano Miiller Junior]]></author>
                </item>

                
                <item>
                <title><![CDATA[【PRORES HD】Wonder Girls - Why So Lonely [ProRes 1080]]]></title>
                <link><![CDATA[https://sharemania.us/threads/wonder-girls-why-so-lonely-prores-1080.239627/]]></link>
                <description><![CDATA[<article>
<blockquote class="messageText SelectQuoteContainer ugc baseHtml">
<div style="text-align: center"><img src="https://i.ibb.co/dL6TpQV/20240309222828.gif" class="bbCodeImage LbImage" alt="[​IMG]" data-url="https://i.ibb.co/dL6TpQV/20240309222828.gif" style=""><br>
​</div>
<div class="ToggleTriggerAnchor bbCodeSpoilerContainer">
<button type="button" class="button bbCodeSpoilerButton ToggleTrigger Tooltip JsOnly" data-target="> .SpoilerTarget"><span>Spoiler: <span class="SpoilerTitle">ProRes</span></span></button>
<div class="SpoilerTarget bbCodeSpoilerText">
<div class="bbCodeBlock bbCodeCode">
<div class="type">Code:</div>
<pre>General
Complete name                            : Wonder Girls - Why So Lonely.mov
Format                                   : MPEG-4
Format profile                           : QuickTime
Codec ID                                 : qt   2005.03 (qt  )
File size                                : 4.32 GiB
Duration                                 : 3 min 32 s
Overall bit rate mode                    : Variable
Overall bit rate                         : 175 Mb/s
Frame rate                               : 23.976 FPS
Encoded date                             : 2016-06-27 10:17:53 UTC
Tagged date                              : 2016-06-23 10:30:50 UTC
Writing library                          : Apple QuickTime
TIM                                      : 00:00:00:00
TSC                                      : 24000
TSZ                                      : 1001

Video
ID                                       : 1
Format                                   : ProRes
Format version                           : Version 0
Format profile                           : 422 HQ
Codec ID                                 : apch
Duration                                 : 3 min 32 s
Bit rate mode                            : Variable
Bit rate                                 : 173 Mb/s
Width                                    : 1 920 pixels
Height                                   : 1 080 pixels
Display aspect ratio                     : 16:9
Frame rate mode                          : Constant
Frame rate                               : 23.976 (24000/1001) FPS
Color space                              : YUV
Chroma subsampling                       : 4:2:2
Scan type                                : Progressive
Bits/(Pixel*Frame)                       : 3.482
Stream size                              : 4.28 GiB (99%)
Writing library                          : Apple
Language                                 : English
Encoded date                             : 2016-06-27 10:17:53 UTC
Tagged date                              : 2016-06-27 10:17:53 UTC
Color primaries                          : BT.709
Transfer characteristics                 : BT.709
Matrix coefficients                      : BT.709

Audio
ID                                       : 2
Format                                   : PCM
Format settings                          : Little / Signed
Codec ID                                 : sowt
Duration                                 : 3 min 32 s
Bit rate mode                            : Constant
Bit rate                                 : 1 536 kb/s
Channel(s)                               : 2 channels
Channel layout                           : L R
Sampling rate                            : 48.0 kHz
Bit depth                                : 16 bits
Stream size                              : 38.8 MiB (1%)
Language                                 : English
Encoded date                             : 2016-06-27 10:17:53 UTC
Tagged date                              : 2016-06-27 10:17:53 UTC

Other
ID                                       : 3
Type                                     : Time code
Format                                   : QuickTime TC
Duration                                 : 3 min 32 s
Frame rate                               : 23.976 (24000/1001) FPS
Time code of first frame                 : 00:00:00:00
Time code of last frame                  : 00:03:31:22
Time code, stripped                      : Yes
Language                                 : English
Encoded date                             : 2016-06-27 10:17:53 UTC
Tagged date                              : 2016-06-27 10:17:53 UTC

</pre>
</div><div style="text-align: center">​</div></div>
</div><div style="text-align: center"><br>
<div class="bbCodeBlock bbCodeVfcHH HiddenContent">
<div class="attribution type">Hidden Content:</div>
<blockquote>You must reply before you can see the hidden data contained here.</blockquote>
</div></div>
<div class="messageTextEndMarker">&nbsp;</div>
</blockquote>
</article>]]></description>
                <author><![CDATA[fstambuk]]></author>
                </item>

                </channel></rss>